<?xml version="1.0" encoding="UTF-8" standalone="no"?>
<svg
   class="img-fluid"
   id="outputsvg"
   style="text-align:center;inline-size:410px"
   width="795.40625"
   height="795.40625"
   viewBox="0 0 7954.0625 7954.0625"
   version="1.1"
   xml:space="preserve"
   xmlns:xlink="http://www.w3.org/1999/xlink"
   xmlns="http://www.w3.org/2000/svg"
   xmlns:svg="http://www.w3.org/2000/svg"><defs
     id="defs20"><linearGradient
       id="linearGradient78"><stop
         style="stop-color:#f9f9f9;stop-opacity:0.15068494;"
         offset="0"
         id="stop78" /><stop
         style="stop-color:#f9f9f9;stop-opacity:0.17123288;"
         offset="0.46636772"
         id="stop81" /><stop
         style="stop-color:#f9f9f9;stop-opacity:0.05136986;"
         offset="0.47498235"
         id="stop80" /><stop
         style="stop-color:#f9f9f9;stop-opacity:0;"
         offset="1"
         id="stop79" /></linearGradient><linearGradient
       id="linearGradient77"><stop
         style="stop-color:#086047;stop-opacity:1;"
         offset="0"
         id="stop76" /><stop
         style="stop-color:#14c484;stop-opacity:0.80891722;"
         offset="1"
         id="stop77" /></linearGradient><linearGradient
       id="linearGradient75"><stop
         style="stop-color:#084936;stop-opacity:1;"
         offset="0"
         id="stop74" /><stop
         style="stop-color:#0aa878;stop-opacity:0.99044585;"
         offset="1"
         id="stop75" /></linearGradient><linearGradient
       xlink:href="#linearGradient75"
       id="linearGradient74"
       gradientUnits="userSpaceOnUse"
       gradientTransform="matrix(0.5299974,-0.8479993,0.5299974,0.8479993,-6765.7814,-2202.9687)"
       x1="10083.572"
       y1="29415.908"
       x2="7895.1602"
       y2="18834.27" /><linearGradient
       xlink:href="#linearGradient77"
       id="linearGradient76"
       gradientUnits="userSpaceOnUse"
       gradientTransform="matrix(0.5299974,-0.8479993,0.5299974,0.8479993,-6765.7814,-2202.9687)"
       x1="10003.709"
       y1="29045.133"
       x2="7327.0117"
       y2="17446.209" /><linearGradient
       xlink:href="#linearGradient78"
       id="linearGradient79"
       x1="-5572.7837"
       y1="7002.6694"
       x2="1002.9338"
       y2="13602.741"
       gradientUnits="userSpaceOnUse" /></defs><rect
     style="text-align:center;inline-size:410px;display:none;fill:#000000;fill-opacity:0.997159;stroke-width:50;stroke-linecap:square;stroke-linejoin:round"
     id="rect1"
     width="9932.6846"
     height="12307.032"
     x="-1305.8909"
     y="-2077.5537" /><g
     id="g59"
     style="font-variation-settings:normal;text-align:center;inline-size:410px;display:inline;opacity:1;vector-effect:none;fill:url(#linearGradient74);fill-opacity:1;stroke:none;stroke-width:26.5418;stroke-linecap:butt;stroke-linejoin:miter;stroke-miterlimit:4;stroke-dasharray:none;stroke-dashoffset:0;stroke-opacity:1;-inkscape-stroke:none;paint-order:markers stroke fill;stop-color:#000000;stop-opacity:1"
     transform="translate(-6262.9687,-6262.9687)"><path
       id="path57"
       style="color:#000000;font-variation-settings:normal;text-align:center;inline-size:410px;display:inline;vector-effect:none;fill:url(#linearGradient76);fill-opacity:1;stroke:none;stroke-width:26.5418;stroke-linecap:butt;stroke-linejoin:miter;stroke-miterlimit:4;stroke-dasharray:none;stroke-dashoffset:0;stroke-opacity:1;-inkscape-stroke:none;paint-order:markers stroke fill;stop-color:#000000;stop-opacity:1"
       d="m 10239.727,6262.9688 -144.063,181.4843 c -201.2929,253.5484 -470.5162,549.9073 -700.8398,846.7969 -230.3237,296.8897 -431.331,586.8996 -470.8984,894.668 -34.0726,265.028 -52.0379,510.3406 -71.9727,734.5508 -209.7888,25.3208 -437.1802,47.8099 -678.9062,78.8867 -206.4183,26.5376 -408.7552,121.2818 -611.3672,246.7773 -88.6882,-228.0945 -173.3056,-470.3682 -257.4805,-699.5312 272.4149,-43.479 558.9206,-91.4826 823.418,-117.9493 93.4196,-9.3477 182.4067,-14.0815 268.1445,-16.4453 9.4894,-93.9221 19.2767,-189.1586 32.2461,-290.039 3.6553,-28.4318 10.2938,-54.8899 15.3516,-82.4024 -114.3419,2.5791 -231.936,10.76 -352.3828,22.8125 -360.9768,36.1208 -741.3021,106.8634 -1066.1328,155.0977 l -229.1797,34.043 85.1171,215.5078 c 114.6815,290.3361 232.6769,654.7633 368.2032,992.4023 -280.657,205.2239 -559.3613,441.9216 -804.5313,636.5621 l -181.4843,144.082 181.4843,144.063 c 238.8721,189.641 515.8963,438.654 795.4102,659.551 -131.6184,331.06 -247.0328,685.216 -359.0821,968.886 l -85.1171,215.508 229.1797,34.024 c 324.8305,48.234 705.1559,119.015 1066.1328,155.136 120.3869,12.047 238.1737,20.622 352.4609,23.204 -5.0897,-27.645 -11.7562,-54.24 -15.4297,-82.813 -12.931,-100.581 -22.679,-195.513 -32.1484,-289.18 -85.4048,-2.384 -175.2311,-7.997 -268.2422,-17.304 -264.4975,-26.467 -551.0031,-74.471 -823.418,-117.95 79.4072,-216.181 159.4488,-443.372 242.5977,-660.273 209.9723,144.115 420.0414,254.784 639.1211,282.949 239.8289,30.833 465.0415,48.234 671.9922,66.016 17.7819,206.951 35.1826,432.163 66.0156,671.992 39.5674,307.769 240.5747,597.778 470.8984,894.668 230.3236,296.89 499.5469,593.268 700.8398,846.816 l 144.063,181.465 144.082,-181.465 c 204.187,-257.195 455.632,-551.186 667.402,-845.742 211.771,-294.554 391.067,-584.44 429.434,-882.871 31.076,-241.722 53.812,-469.131 79.433,-678.965 224.063,-19.914 469.197,-37.869 734.004,-71.914 213.406,-27.435 418.266,-133.305 622.813,-271.933 89.721,210.309 174.884,435.552 257.539,651.64 -279.58,48.448 -577.589,108.251 -853.282,146.035 -109.697,15.035 -215.088,24.757 -313.964,29.981 -10.301,88.447 -18.481,164.459 -30.626,258.926 -5.172,40.239 -13.338,78.632 -21.191,117.226 133.929,-5.991 273.271,-22.095 415.742,-41.621 372.277,-51.021 763.543,-136.004 1083.77,-183.555 l 229.199,-34.023 -85.137,-215.508 c -115.002,-291.147 -238.033,-635.499 -378.476,-953.554 286.193,-224.643 570.608,-481.252 815.097,-675.352 l 181.465,-144.063 -181.465,-144.082 c -251.225,-199.4476 -537.619,-443.4817 -825.293,-652.0894 144.823,-324.4884 270.833,-679.0129 388.672,-977.3438 l 85.137,-215.5078 -229.199,-34.0234 c -320.226,-47.5509 -711.493,-132.5336 -1083.77,-183.5547 -142.464,-19.5251 -281.816,-35.6304 -415.742,-41.6211 7.853,38.5959 16.019,77.0047 21.191,117.2461 12.202,94.9097 20.299,171.2166 30.586,260.039 99.412,5.1903 203.604,13.7171 314.004,28.8477 275.693,37.7844 573.702,97.5877 853.282,146.0352 -87.804,229.5529 -178.429,469.4516 -274.395,690.6445 -196.507,-119.851 -392.875,-209.7682 -593.086,-235.5078 -265.787,-34.1702 -512.834,-58.6644 -739.394,-87.6563 -28.61,-226.3248 -52.778,-473.1257 -86.914,-738.6523 -38.367,-298.4309 -217.663,-588.3159 -429.434,-882.8711 -211.77,-294.5551 -463.215,-588.5274 -667.402,-845.7227 z m -1.114,587.8515 c 173.862,214.1794 358.698,438.2923 513.867,654.1211 198.702,276.3773 341.279,544.1761 363.243,715.0195 27.943,217.3526 48.14,427.4993 71.777,629.7071 -26.394,-5.5071 -55.589,-9.6276 -80.957,-15.7032 -326.512,-78.1993 -554.756,-194.6579 -713.164,-433.8476 l -0.469,-0.7227 59.219,-94.7656 -212.129,-339.4141 -212.129,339.4141 59.238,94.7656 -0.761,1.1524 c -158.5241,240.8417 -386.3007,356.933 -712.6761,434.6875 -45.6466,10.8747 -96.7673,18.9277 -145.7031,28.0468 17.0967,-201.9294 32.8294,-412.4235 60.8593,-630.4492 20.7636,-161.5059 179.0838,-435.5908 396.6797,-716.0742 170.5683,-219.8645 371.3582,-448.0384 553.1052,-665.9375 z m 1.797,1940.7422 c 211.107,211.2948 485.199,329.483 780.449,400.1953 71.981,17.2393 146.134,31.5832 221.368,44.7656 13.114,75.5845 27.399,150.0811 44.628,222.4024 70.426,295.6135 188.929,570.2312 401.583,781.4842 -211.295,211.107 -329.483,485.199 -400.196,780.449 -21.096,88.084 -38.441,178.884 -53.691,271.797 -71.157,9.222 -142.409,18.197 -210.801,30.996 -293.368,54.903 -570.423,159.14 -783.75,367.793 -213.327,-208.653 -490.3821,-312.89 -783.75,-367.793 -84.8237,-15.874 -172.395,-27.822 -261.4453,-38.457 -10.635,-89.05 -22.5824,-176.621 -38.457,-261.445 -54.9033,-293.368 -159.1393,-570.423 -367.793,-783.75 208.6535,-213.327 312.8898,-490.3821 367.793,-783.75 12.7401,-68.0755 21.6674,-139.0092 30.8593,-209.8242 92.8712,-15.1072 183.6459,-32.2991 271.7188,-53.2813 295.6135,-70.426 570.2312,-188.9286 781.4842,-401.582 z m 1388.613,500.293 c 202.568,23.9653 413.177,44.4159 631.016,72.4218 120.846,15.5364 291.243,93.5023 477.832,206.9141 -51.305,93.5842 -103.442,178.1628 -154.766,248.0664 l 311.407,204.9612 c 54.497,-74.8198 104.364,-157.1021 151.718,-243.7698 193.706,143.5789 392.13,306.0388 582.95,460.9378 -187.344,156.26 -381.621,323.614 -572.344,476.718 -50.687,-94.342 -104.48,-183.17 -163.379,-263.847 l -310.84,205.859 c 57.827,78.671 116.616,176.372 174.141,284.492 -203.379,137.67 -388.263,230.964 -509.59,246.563 -217.626,27.978 -427.725,43.701 -629.316,60.762 9.175,-48.821 17.272,-99.835 28.183,-145.391 78.2,-326.512 194.658,-554.756 433.848,-713.164 l 232.305,-153.848 -232.735,-153.183 c -240.842,-158.5241 -356.932,-386.3007 -434.687,-712.6761 -6.107,-25.6315 -10.221,-55.1332 -15.743,-81.8164 z m -2821.1324,5.4101 c -4.6026,29.8928 -7.8277,62.7948 -13.164,91.3086 -60.5008,323.2774 -157.1982,540.5933 -395.0977,698.0278 l -231.8164,153.398 231.8164,153.398 c 237.8996,157.435 334.5969,374.75 395.0977,698.028 9.1577,48.933 15.4324,103.76 22.5781,156.699 -188.1018,-15.711 -382.6663,-31.009 -584.4727,-56.953 -127.278,-16.364 -325.0299,-119.878 -540.1758,-268.789 52.0599,-109.708 105.6519,-209.76 158.5938,-292.305 l -311.9336,-206.426 c -53.82,82.665 -102.5217,172.927 -148.3008,268.203 -180.447,-146.255 -363.35,-302.964 -540.1953,-450.468 179.679,-145.856 366.0981,-298.3974 549.0039,-435.7034 43.2711,88.7047 89.04,173.1744 139.4922,250.6644 L 7851.25,9849.9219 c -47.6179,-74.2442 -95.777,-162.6675 -142.8906,-259.3164 200.2561,-125.2535 383.2858,-209.8316 511.6015,-226.3282 202.9324,-26.0894 398.0822,-45.323 587.9297,-67.0117 z m 423.9844,2365.4294 c 52.9394,7.146 107.7659,13.421 156.6992,22.578 323.2774,60.501 540.5932,157.198 698.0278,395.098 l 0.332,0.508 -59.063,94.492 212.129,339.414 212.129,-339.414 -59.063,-94.492 0.332,-0.508 c 157.435,-237.9 374.75,-334.597 698.028,-395.098 28.659,-5.363 61.724,-8.6 91.777,-13.222 -21.931,189.847 -41.384,385.003 -67.48,587.988 -21.964,170.843 -164.541,438.642 -363.243,715.02 -155.169,215.828 -340.005,439.941 -513.867,654.121 -181.746,-217.9 -382.5369,-446.073 -553.1052,-665.938 -217.5959,-280.483 -375.9161,-554.568 -396.6797,-716.074 -25.9447,-201.806 -41.2425,-396.37 -56.9531,-584.473 z M 8073.4554,9402.9258 c 54.0646,-19.8814 103.3723,-33.1134 146.5016,-38.6582 446.5303,-57.4068 865.3719,-82.123 1238.9746,-171.1289 295.6138,-70.4261 570.2334,-188.9167 781.4864,-401.5703 211.107,211.295 485.185,329.4809 780.436,400.1933 373.467,89.4452 792.426,115.0689 1239.189,172.5059 25.053,3.2208 52.19,9.0355 81.134,17.2405 l 107.915,-353.4896 c -47.198,-12.8415 -94.559,-22.5404 -142.137,-28.6572 -460.843,-59.2471 -873.899,-87.1912 -1200.41,-165.3906 -326.512,-78.1994 -554.766,-194.6655 -713.174,-433.8555 l -153.844,-232.2968 -153.183,232.7304 c -158.5239,240.842 -386.2983,356.9407 -712.6741,434.6953 -326.3757,77.7547 -739.5489,104.8402 -1200.625,164.1172 -65.0493,8.3629 -129.6922,23.4216 -194.0657,44.053 z m -106.4948,2098.5562 c 72.1923,26.286 145.0671,45.094 218.9652,54.594 465.7804,59.881 879.3668,68.697 1202.6445,129.197 323.2777,60.501 540.5894,157.196 698.0237,395.096 l 153.406,231.815 153.406,-231.815 c 157.435,-237.9 374.746,-334.595 698.024,-395.096 323.277,-60.5 736.864,-69.316 1202.644,-129.197 66.004,-8.486 131.192,-24.396 195.806,-46.429 l -154.038,-339.644 c -32.308,10.567 -62.027,17.74 -88.68,21.167 -441.826,56.803 -853.372,63.22 -1223.412,132.473 -293.368,54.903 -570.423,159.15 -783.75,367.804 -213.327,-208.654 -490.3818,-312.901 -783.75,-367.804 -370.0396,-69.253 -781.5843,-75.67 -1223.4102,-132.473 -54.5019,-7.007 -121.8247,-29.679 -197.8876,-65.008" /></g><g
     id="g87-5-2"
     transform="matrix(0.25995871,0,0,0.25995871,4627.0182,1351.5889)"
     style="text-align:center;inline-size:410px;display:inline;stroke-width:3.84677"><path
       style="font-variation-settings:normal;text-align:center;inline-size:410px;display:inline;opacity:1;fill:#9b9b9b;fill-opacity:0.737255;stroke:none;stroke-width:192.338;stroke-linecap:round;stroke-linejoin:bevel;stroke-miterlimit:5;stroke-dasharray:none;stroke-dashoffset:0;stroke-opacity:1;paint-order:markers stroke fill"
       d="m -1632.6875,7137.0281 1579.995275,514.695 514.793595,1580.081 v 1735.3319 l -514.830095,1580.309 -1579.958975,514.447 h -1735.3334 l -1580.05,-514.708 -514.725,-1580.048 0.01,-1735.3419 514.7498,-1580.072 1580.0064,-514.684 z"
       id="path103" /><path
       style="font-variation-settings:normal;text-align:center;inline-size:410px;display:inline;opacity:1;fill:#38bf8a;fill-opacity:0.870588;stroke:none;stroke-width:384.677;stroke-linecap:butt;stroke-linejoin:miter;stroke-miterlimit:5;stroke-dasharray:none;stroke-dashoffset:0;stroke-opacity:1;paint-order:markers fill stroke"
       d="m -1632.6875,7137.0281 1579.995275,514.695 514.793595,1580.081 v 1735.3319 l -514.830095,1580.309 -1579.958975,514.447 h -1735.3334 l -1580.05,-514.708 -514.725,-1580.048 0.01,-1735.3419 514.7498,-1580.072 1580.0064,-514.684 z"
       id="path67-98-1" /><path
       style="font-variation-settings:normal;text-align:center;inline-size:410px;display:inline;opacity:1;fill:#55bf91;fill-opacity:0.988235;stroke:none;stroke-width:384.677;stroke-linecap:butt;stroke-linejoin:miter;stroke-miterlimit:5;stroke-dasharray:none;stroke-dashoffset:0;stroke-opacity:1;paint-order:markers fill stroke"
       d="m -2118.4211,9177.3041 -381.9435,194.246 -381.9975,-194.274 -132.7987,407.737 -407.4637,132.626 194.2382,382.0419 -194.2117,381.876 407.4735,132.598 132.73,407.507 382.2069,-194.38 381.8292,194.234 132.7537,-407.362 407.3893,-132.765 -194.2382,-381.928 194.2524,-381.9559 -407.4376,-132.753 z"
       id="path75-48-5" /><path
       id="path85-0-8"
       style="font-variation-settings:normal;text-align:center;inline-size:410px;display:inline;opacity:1;fill:#007f6e;fill-opacity:1;stroke:none;stroke-width:384.677;stroke-linecap:butt;stroke-linejoin:miter;stroke-miterlimit:5;stroke-dasharray:none;stroke-dashoffset:0;stroke-opacity:1;paint-order:markers fill stroke"
       d="m -3981.5799,8618.2441 -559.0725,-1099.23 -407.3839,132.708 -132.6975,407.316 z m -10e-5,2962.4319 -1099.2758,558.9 132.7847,407.608 407.5147,132.751 z m 4061.683075,559.006 -132.8318,407.763 -407.450505,132.669 -558.96857,-1099.438 1099.250875,559.006 M -52.692225,7651.7231 -460.24153,7518.9611 -1019.1477,8618.2441 80.067375,8059.2291 Z M -405.56523,10099.47 -1578.2012,9717.5051 l -194.2524,381.9559 194.2382,381.928 z m -1712.79317,922.046 132.7537,-407.362 407.3893,-132.765 559.0676,1099.287 -1099.2106,-559.16 m -764.0361,0.146 382.2069,-194.38 381.8292,194.234 -381.9961,1172.71 z m -540.2035,-540.105 -558.982,1099.119 1099.1855,-559.014 -132.73,-407.507 z m -0.027,-763.9179 -1172.4953,381.8209 1172.5218,382.097 194.2117,-381.876 z m 540.2624,-540.363 -1099.2178,-559.032 558.9554,1099.395 407.4637,-132.626 132.7987,-407.737 m 381.9983,-1172.572 -381.9983,1172.572 381.9975,194.274 381.9435,-194.246 z m 1481.2161,613.54 -1099.2734,559.06 132.7823,407.448 407.4376,132.753 z" /><path
       id="path79-1-7"
       style="font-variation-settings:normal;text-align:center;inline-size:410px;display:inline;opacity:1;fill:#006a5f;fill-opacity:1;stroke:none;stroke-width:384.677;stroke-linecap:butt;stroke-linejoin:miter;stroke-miterlimit:5;stroke-dasharray:none;stroke-dashoffset:0;stroke-opacity:1;paint-order:markers fill stroke"
       d="m -5462.7866,10967.126 5e-4,-1735.3319 213.2033,654.469 654.463,213.1969 -654.4489,213.191 z m 3830.0989,2094.766 -654.463,-213.197 -213.2132,-654.479 -213.2241,654.588 -654.4331,213.088 z M 462.10137,9231.8041 v 1735.3319 l -213.2185,-654.475 -654.4908,-213.202 654.4758,-213.0769 213.2335,-654.578 m -2094.78887,-2094.776 -654.4584,213.201 -213.2179,654.475 -213.2185,-654.475 -654.4577,-213.202 z" /><path
       style="font-variation-settings:normal;text-align:center;inline-size:410px;display:inline;opacity:1;fill:url(#linearGradient79);fill-opacity:1;stroke:#006a5f;stroke-width:192.338;stroke-linecap:square;stroke-linejoin:round;stroke-miterlimit:5;stroke-dasharray:none;stroke-dashoffset:0;stroke-opacity:1;paint-order:normal"
       d="m -1632.6875,7137.0281 1579.995275,514.695 514.793595,1580.081 v 1735.3319 l -514.830095,1580.309 -1579.958975,514.447 h -1735.3334 l -1580.05,-514.708 -514.725,-1580.048 0.01,-1735.3419 514.7498,-1580.072 1580.0064,-514.684 z"
       id="path77" /></g></svg>
